<svg xmlns="http://www.w3.org/2000/svg" width="1120" height="680" viewBox="0 0 1120 680" role="img"><rect x="0" y="0" width="1120" height="680" fill="white"/><text x="560" y="26" text-anchor="middle" font-size="16" font-family="sans-serif" font-weight="600">Class Balance (All Rows)</text><line x1="90" y1="560" x2="1080" y2="560" stroke="black" stroke-width="1"/><line x1="90" y1="560" x2="90" y2="60" stroke="black" stroke-width="1"/><rect x="159.30" y="522.49" width="356.40" height="37.51" fill="#2a9d8f"/><text x="337.50" y="516.49" text-anchor="middle" font-size="10" font-family="sans-serif">650362</text><text x="337.50" y="576.00" text-anchor="middle" font-size="10" font-family="sans-serif">Benign</text><rect x="654.30" y="60.00" width="356.40" height="500.00" fill="#2a9d8f"/><text x="832.50" y="54.00" text-anchor="middle" font-size="10" font-family="sans-serif">8669683</text><text x="832.50" y="576.00" text-anchor="middle" font-size="10" font-family="sans-serif">Attack</text><line x1="90" y1="560.00" x2="1080" y2="560.00" stroke="#d9d9d9" stroke-width="1"/><text x="82" y="564.00" text-anchor="end" font-size="10" font-family="sans-serif">0</text><line x1="90" y1="460.00" x2="1080" y2="460.00" stroke="#d9d9d9" stroke-width="1"/><text x="82" y="464.00" text-anchor="end" font-size="10" font-family="sans-serif">1733937</text><line x1="90" y1="360.00" x2="1080" y2="360.00" stroke="#d9d9d9" stroke-width="1"/><text x="82" y="364.00" text-anchor="end" font-size="10" font-family="sans-serif">3467873</text><line x1="90" y1="260.00" x2="1080" y2="260.00" stroke="#d9d9d9" stroke-width="1"/><text x="82" y="264.00" text-anchor="end" font-size="10" font-family="sans-serif">5201810</text><line x1="90" y1="160.00" x2="1080" y2="160.00" stroke="#d9d9d9" stroke-width="1"/><text x="82" y="164.00" text-anchor="end" font-size="10" font-family="sans-serif">6935746</text><line x1="90" y1="60.00" x2="1080" y2="60.00" stroke="#d9d9d9" stroke-width="1"/><text x="82" y="64.00" text-anchor="end" font-size="10" font-family="sans-serif">8669683</text></svg>