<svg xmlns="http://www.w3.org/2000/svg" width="1120" height="700" viewBox="0 0 1120 700" role="img"><rect x="0" y="0" width="1120" height="700" fill="white"/><text x="560" y="26" text-anchor="middle" font-size="16" font-family="sans-serif" font-weight="600">Top Protocols with Benign/Attack Composition</text><line x1="90" y1="520" x2="1060" y2="520" stroke="black" stroke-width="1"/><line x1="90" y1="520" x2="90" y2="70" stroke="black" stroke-width="1"/><rect x="148.20" y="497.98" width="206.93" height="22.02" fill="#4e79a7"/><rect x="148.20" y="70.00" width="206.93" height="427.98" fill="#e15759"/><text x="251.67" y="536.00" text-anchor="end" font-size="10" font-family="sans-serif" transform="rotate(-45 251.67 536.00)">wifi</text><rect x="471.53" y="509.71" width="206.93" height="10.29" fill="#4e79a7"/><rect x="471.53" y="492.70" width="206.93" height="17.01" fill="#e15759"/><text x="575.00" y="536.00" text-anchor="end" font-size="10" font-family="sans-serif" transform="rotate(-45 575.00 536.00)">mqtt</text><rect x="794.87" y="518.43" width="206.93" height="1.57" fill="#4e79a7"/><rect x="794.87" y="511.92" width="206.93" height="6.51" fill="#e15759"/><text x="898.33" y="536.00" text-anchor="end" font-size="10" font-family="sans-serif" transform="rotate(-45 898.33 536.00)">bluetooth</text><line x1="90" y1="520.00" x2="1060" y2="520.00" stroke="#d9d9d9" stroke-width="1"/><text x="82" y="524.00" text-anchor="end" font-size="10" font-family="sans-serif">0</text><line x1="90" y1="430.00" x2="1060" y2="430.00" stroke="#d9d9d9" stroke-width="1"/><text x="82" y="434.00" text-anchor="end" font-size="10" font-family="sans-serif">1728150</text><line x1="90" y1="340.00" x2="1060" y2="340.00" stroke="#d9d9d9" stroke-width="1"/><text x="82" y="344.00" text-anchor="end" font-size="10" font-family="sans-serif">3456301</text><line x1="90" y1="250.00" x2="1060" y2="250.00" stroke="#d9d9d9" stroke-width="1"/><text x="82" y="254.00" text-anchor="end" font-size="10" font-family="sans-serif">5184451</text><line x1="90" y1="160.00" x2="1060" y2="160.00" stroke="#d9d9d9" stroke-width="1"/><text x="82" y="164.00" text-anchor="end" font-size="10" font-family="sans-serif">6912602</text><line x1="90" y1="70.00" x2="1060" y2="70.00" stroke="#d9d9d9" stroke-width="1"/><text x="82" y="74.00" text-anchor="end" font-size="10" font-family="sans-serif">8640752</text><rect x="880" y="78" width="14" height="14" fill="#4e79a7"/><text x="900" y="90" font-size="11" font-family="sans-serif">Benign</text><rect x="880" y="98" width="14" height="14" fill="#e15759"/><text x="900" y="110" font-size="11" font-family="sans-serif">Attack</text></svg>