<svg xmlns="http://www.w3.org/2000/svg" width="1120" height="680" viewBox="0 0 1120 680" role="img"><rect x="0" y="0" width="1120" height="680" fill="white"/><text x="560" y="26" text-anchor="middle" font-size="16" font-family="sans-serif" font-weight="600">Top Attack Families / Traffic Families</text><line x1="90" y1="510" x2="1080" y2="510" stroke="black" stroke-width="1"/><line x1="90" y1="510" x2="90" y2="60" stroke="black" stroke-width="1"/><rect x="109.80" y="60.00" width="101.83" height="450.00" fill="#e76f51"/><text x="160.71" y="54.00" text-anchor="middle" font-size="10" font-family="sans-serif">6097614</text><text x="160.71" y="526.00" text-anchor="end" font-size="10" font-family="sans-serif" transform="rotate(-45 160.71 526.00)">DDoS</text><rect x="251.23" y="340.93" width="101.83" height="169.07" fill="#e76f51"/><text x="302.14" y="334.93" text-anchor="middle" font-size="10" font-family="sans-serif">2290990</text><text x="302.14" y="526.00" text-anchor="end" font-size="10" font-family="sans-serif" transform="rotate(-45 302.14 526.00)">DoS</text><rect x="392.66" y="462.00" width="101.83" height="48.00" fill="#e76f51"/><text x="443.57" y="456.00" text-anchor="middle" font-size="10" font-family="sans-serif">650362</text><text x="443.57" y="526.00" text-anchor="end" font-size="10" font-family="sans-serif" transform="rotate(-45 443.57 526.00)">Benign</text><rect x="534.09" y="500.30" width="101.83" height="9.70" fill="#e76f51"/><text x="585.00" y="494.30" text-anchor="middle" font-size="10" font-family="sans-serif">131402</text><text x="585.00" y="526.00" text-anchor="end" font-size="10" font-family="sans-serif" transform="rotate(-45 585.00 526.00)">Recon</text><rect x="675.51" y="500.77" width="101.83" height="9.23" fill="#e76f51"/><text x="726.43" y="494.77" text-anchor="middle" font-size="10" font-family="sans-serif">125009</text><text x="726.43" y="526.00" text-anchor="end" font-size="10" font-family="sans-serif" transform="rotate(-45 726.43 526.00)">Other</text><rect x="816.94" y="508.69" width="101.83" height="1.31" fill="#e76f51"/><text x="867.86" y="502.69" text-anchor="middle" font-size="10" font-family="sans-serif">17791</text><text x="867.86" y="526.00" text-anchor="end" font-size="10" font-family="sans-serif" transform="rotate(-45 867.86 526.00)">Spoofing</text><rect x="958.37" y="509.49" width="101.83" height="0.51" fill="#e76f51"/><text x="1009.29" y="503.49" text-anchor="middle" font-size="10" font-family="sans-serif">6877</text><text x="1009.29" y="526.00" text-anchor="end" font-size="10" font-family="sans-serif" transform="rotate(-45 1009.29 526.00)">Malformed</text><line x1="90" y1="510.00" x2="1080" y2="510.00" stroke="#d9d9d9" stroke-width="1"/><text x="82" y="514.00" text-anchor="end" font-size="10" font-family="sans-serif">0</text><line x1="90" y1="420.00" x2="1080" y2="420.00" stroke="#d9d9d9" stroke-width="1"/><text x="82" y="424.00" text-anchor="end" font-size="10" font-family="sans-serif">1219523</text><line x1="90" y1="330.00" x2="1080" y2="330.00" stroke="#d9d9d9" stroke-width="1"/><text x="82" y="334.00" text-anchor="end" font-size="10" font-family="sans-serif">2439046</text><line x1="90" y1="240.00" x2="1080" y2="240.00" stroke="#d9d9d9" stroke-width="1"/><text x="82" y="244.00" text-anchor="end" font-size="10" font-family="sans-serif">3658568</text><line x1="90" y1="150.00" x2="1080" y2="150.00" stroke="#d9d9d9" stroke-width="1"/><text x="82" y="154.00" text-anchor="end" font-size="10" font-family="sans-serif">4878091</text><line x1="90" y1="60.00" x2="1080" y2="60.00" stroke="#d9d9d9" stroke-width="1"/><text x="82" y="64.00" text-anchor="end" font-size="10" font-family="sans-serif">6097614</text></svg>