<svg xmlns="http://www.w3.org/2000/svg" width="1120" height="680" viewBox="0 0 1120 680" role="img"><rect x="0" y="0" width="1120" height="680" fill="white"/><text x="560" y="26" text-anchor="middle" font-size="16" font-family="sans-serif" font-weight="600">Top Features by |Cohen&#x27;s d| (Sampled)</text><line x1="90" y1="510" x2="1080" y2="510" stroke="black" stroke-width="1"/><line x1="90" y1="510" x2="90" y2="60" stroke="black" stroke-width="1"/><rect x="101.55" y="60.00" width="59.40" height="450.00" fill="#9c755f"/><text x="131.25" y="54.00" text-anchor="middle" font-size="10" font-family="sans-serif">4</text><text x="131.25" y="526.00" text-anchor="end" font-size="10" font-family="sans-serif" transform="rotate(-45 131.25 526.00)">psh_flag_number</text><rect x="184.05" y="65.47" width="59.40" height="444.53" fill="#9c755f"/><text x="213.75" y="59.47" text-anchor="middle" font-size="10" font-family="sans-serif">4</text><text x="213.75" y="526.00" text-anchor="end" font-size="10" font-family="sans-serif" transform="rotate(-45 213.75 526.00)">Variance</text><rect x="266.55" y="120.20" width="59.40" height="389.80" fill="#9c755f"/><text x="296.25" y="114.20" text-anchor="middle" font-size="10" font-family="sans-serif">3</text><text x="296.25" y="526.00" text-anchor="end" font-size="10" font-family="sans-serif" transform="rotate(-45 296.25 526.00)">rst_count</text><rect x="349.05" y="156.37" width="59.40" height="353.63" fill="#9c755f"/><text x="378.75" y="150.37" text-anchor="middle" font-size="10" font-family="sans-serif">3</text><text x="378.75" y="526.00" text-anchor="end" font-size="10" font-family="sans-serif" transform="rotate(-45 378.75 526.00)">ack_flag_number</text><rect x="431.55" y="262.95" width="59.40" height="247.05" fill="#9c755f"/><text x="461.25" y="256.95" text-anchor="middle" font-size="10" font-family="sans-serif">2</text><text x="461.25" y="526.00" text-anchor="end" font-size="10" font-family="sans-serif" transform="rotate(-45 461.25 526.00)">Max</text><rect x="514.05" y="278.59" width="59.40" height="231.41" fill="#9c755f"/><text x="543.75" y="272.59" text-anchor="middle" font-size="10" font-family="sans-serif">2</text><text x="543.75" y="526.00" text-anchor="end" font-size="10" font-family="sans-serif" transform="rotate(-45 543.75 526.00)">Magnitue</text><rect x="596.55" y="293.60" width="59.40" height="216.40" fill="#9c755f"/><text x="626.25" y="287.60" text-anchor="middle" font-size="10" font-family="sans-serif">2</text><text x="626.25" y="526.00" text-anchor="end" font-size="10" font-family="sans-serif" transform="rotate(-45 626.25 526.00)">Std</text><rect x="679.05" y="294.17" width="59.40" height="215.83" fill="#9c755f"/><text x="708.75" y="288.17" text-anchor="middle" font-size="10" font-family="sans-serif">2</text><text x="708.75" y="526.00" text-anchor="end" font-size="10" font-family="sans-serif" transform="rotate(-45 708.75 526.00)">Radius</text><rect x="761.55" y="319.32" width="59.40" height="190.68" fill="#9c755f"/><text x="791.25" y="313.32" text-anchor="middle" font-size="10" font-family="sans-serif">2</text><text x="791.25" y="526.00" text-anchor="end" font-size="10" font-family="sans-serif" transform="rotate(-45 791.25 526.00)">Header_Length</text><rect x="844.05" y="336.95" width="59.40" height="173.05" fill="#9c755f"/><text x="873.75" y="330.95" text-anchor="middle" font-size="10" font-family="sans-serif">1</text><text x="873.75" y="526.00" text-anchor="end" font-size="10" font-family="sans-serif" transform="rotate(-45 873.75 526.00)">Tot size</text><rect x="926.55" y="337.09" width="59.40" height="172.91" fill="#9c755f"/><text x="956.25" y="331.09" text-anchor="middle" font-size="10" font-family="sans-serif">1</text><text x="956.25" y="526.00" text-anchor="end" font-size="10" font-family="sans-serif" transform="rotate(-45 956.25 526.00)">AVG</text><rect x="1009.05" y="359.76" width="59.40" height="150.24" fill="#9c755f"/><text x="1038.75" y="353.76" text-anchor="middle" font-size="10" font-family="sans-serif">1</text><text x="1038.75" y="526.00" text-anchor="end" font-size="10" font-family="sans-serif" transform="rotate(-45 1038.75 526.00)">HTTPS</text><line x1="90" y1="510.00" x2="1080" y2="510.00" stroke="#d9d9d9" stroke-width="1"/><text x="82" y="514.00" text-anchor="end" font-size="10" font-family="sans-serif">0</text><line x1="90" y1="420.00" x2="1080" y2="420.00" stroke="#d9d9d9" stroke-width="1"/><text x="82" y="424.00" text-anchor="end" font-size="10" font-family="sans-serif">1</text><line x1="90" y1="330.00" x2="1080" y2="330.00" stroke="#d9d9d9" stroke-width="1"/><text x="82" y="334.00" text-anchor="end" font-size="10" font-family="sans-serif">2</text><line x1="90" y1="240.00" x2="1080" y2="240.00" stroke="#d9d9d9" stroke-width="1"/><text x="82" y="244.00" text-anchor="end" font-size="10" font-family="sans-serif">2</text><line x1="90" y1="150.00" x2="1080" y2="150.00" stroke="#d9d9d9" stroke-width="1"/><text x="82" y="154.00" text-anchor="end" font-size="10" font-family="sans-serif">3</text><line x1="90" y1="60.00" x2="1080" y2="60.00" stroke="#d9d9d9" stroke-width="1"/><text x="82" y="64.00" text-anchor="end" font-size="10" font-family="sans-serif">4</text></svg>