<svg xmlns="http://www.w3.org/2000/svg" width="1120" height="680" viewBox="0 0 1120 680" role="img"><rect x="0" y="0" width="1120" height="680" fill="white"/><text x="560" y="26" text-anchor="middle" font-size="16" font-family="sans-serif" font-weight="600">Distribution Overlay: psh_flag_number (Sampled)</text><line x1="90" y1="560" x2="1060" y2="560" stroke="black" stroke-width="1"/><line x1="90" y1="560" x2="90" y2="70" stroke="black" stroke-width="1"/><rect x="90.00" y="551.67" width="26.94" height="8.33" fill="#4e79a7" fill-opacity="0.45"/><rect x="90.00" y="70.00" width="26.94" height="490.00" fill="#e15759" fill-opacity="0.45"/><rect x="116.94" y="560.00" width="26.94" height="0.00" fill="#4e79a7" fill-opacity="0.45"/><rect x="116.94" y="558.97" width="26.94" height="1.03" fill="#e15759" fill-opacity="0.45"/><rect x="143.89" y="560.00" width="26.94" height="0.00" fill="#4e79a7" fill-opacity="0.45"/><rect x="143.89" y="558.41" width="26.94" height="1.59" fill="#e15759" fill-opacity="0.45"/><rect x="170.83" y="558.23" width="26.94" height="1.77" fill="#4e79a7" fill-opacity="0.45"/><rect x="170.83" y="558.39" width="26.94" height="1.61" fill="#e15759" fill-opacity="0.45"/><rect x="197.78" y="560.00" width="26.94" height="0.00" fill="#4e79a7" fill-opacity="0.45"/><rect x="197.78" y="558.64" width="26.94" height="1.36" fill="#e15759" fill-opacity="0.45"/><rect x="224.72" y="560.00" width="26.94" height="0.00" fill="#4e79a7" fill-opacity="0.45"/><rect x="224.72" y="557.96" width="26.94" height="2.04" fill="#e15759" fill-opacity="0.45"/><rect x="251.67" y="560.00" width="26.94" height="0.00" fill="#4e79a7" fill-opacity="0.45"/><rect x="251.67" y="557.47" width="26.94" height="2.53" fill="#e15759" fill-opacity="0.45"/><rect x="278.61" y="557.14" width="26.94" height="2.86" fill="#4e79a7" fill-opacity="0.45"/><rect x="278.61" y="557.15" width="26.94" height="2.85" fill="#e15759" fill-opacity="0.45"/><rect x="305.56" y="560.00" width="26.94" height="0.00" fill="#4e79a7" fill-opacity="0.45"/><rect x="305.56" y="558.66" width="26.94" height="1.34" fill="#e15759" fill-opacity="0.45"/><rect x="332.50" y="560.00" width="26.94" height="0.00" fill="#4e79a7" fill-opacity="0.45"/><rect x="332.50" y="558.35" width="26.94" height="1.65" fill="#e15759" fill-opacity="0.45"/><rect x="359.44" y="556.74" width="26.94" height="3.26" fill="#4e79a7" fill-opacity="0.45"/><rect x="359.44" y="558.69" width="26.94" height="1.31" fill="#e15759" fill-opacity="0.45"/><rect x="386.39" y="560.00" width="26.94" height="0.00" fill="#4e79a7" fill-opacity="0.45"/><rect x="386.39" y="559.30" width="26.94" height="0.70" fill="#e15759" fill-opacity="0.45"/><rect x="413.33" y="560.00" width="26.94" height="0.00" fill="#4e79a7" fill-opacity="0.45"/><rect x="413.33" y="559.44" width="26.94" height="0.56" fill="#e15759" fill-opacity="0.45"/><rect x="440.28" y="560.00" width="26.94" height="0.00" fill="#4e79a7" fill-opacity="0.45"/><rect x="440.28" y="559.73" width="26.94" height="0.27" fill="#e15759" fill-opacity="0.45"/><rect x="467.22" y="554.28" width="26.94" height="5.72" fill="#4e79a7" fill-opacity="0.45"/><rect x="467.22" y="559.43" width="26.94" height="0.57" fill="#e15759" fill-opacity="0.45"/><rect x="494.17" y="560.00" width="26.94" height="0.00" fill="#4e79a7" fill-opacity="0.45"/><rect x="494.17" y="559.60" width="26.94" height="0.40" fill="#e15759" fill-opacity="0.45"/><rect x="521.11" y="560.00" width="26.94" height="0.00" fill="#4e79a7" fill-opacity="0.45"/><rect x="521.11" y="559.61" width="26.94" height="0.39" fill="#e15759" fill-opacity="0.45"/><rect x="548.06" y="560.00" width="26.94" height="0.00" fill="#4e79a7" fill-opacity="0.45"/><rect x="548.06" y="559.69" width="26.94" height="0.31" fill="#e15759" fill-opacity="0.45"/><rect x="575.00" y="550.31" width="26.94" height="9.69" fill="#4e79a7" fill-opacity="0.45"/><rect x="575.00" y="559.44" width="26.94" height="0.56" fill="#e15759" fill-opacity="0.45"/><rect x="601.94" y="560.00" width="26.94" height="0.00" fill="#4e79a7" fill-opacity="0.45"/><rect x="601.94" y="559.75" width="26.94" height="0.25" fill="#e15759" fill-opacity="0.45"/><rect x="628.89" y="560.00" width="26.94" height="0.00" fill="#4e79a7" fill-opacity="0.45"/><rect x="628.89" y="559.74" width="26.94" height="0.26" fill="#e15759" fill-opacity="0.45"/><rect x="655.83" y="556.64" width="26.94" height="3.36" fill="#4e79a7" fill-opacity="0.45"/><rect x="655.83" y="559.68" width="26.94" height="0.32" fill="#e15759" fill-opacity="0.45"/><rect x="682.78" y="560.00" width="26.94" height="0.00" fill="#4e79a7" fill-opacity="0.45"/><rect x="682.78" y="559.91" width="26.94" height="0.09" fill="#e15759" fill-opacity="0.45"/><rect x="709.72" y="560.00" width="26.94" height="0.00" fill="#4e79a7" fill-opacity="0.45"/><rect x="709.72" y="559.76" width="26.94" height="0.24" fill="#e15759" fill-opacity="0.45"/><rect x="736.67" y="560.00" width="26.94" height="0.00" fill="#4e79a7" fill-opacity="0.45"/><rect x="736.67" y="559.80" width="26.94" height="0.20" fill="#e15759" fill-opacity="0.45"/><rect x="763.61" y="558.19" width="26.94" height="1.81" fill="#4e79a7" fill-opacity="0.45"/><rect x="763.61" y="559.86" width="26.94" height="0.14" fill="#e15759" fill-opacity="0.45"/><rect x="790.56" y="560.00" width="26.94" height="0.00" fill="#4e79a7" fill-opacity="0.45"/><rect x="790.56" y="559.94" width="26.94" height="0.06" fill="#e15759" fill-opacity="0.45"/><rect x="817.50" y="560.00" width="26.94" height="0.00" fill="#4e79a7" fill-opacity="0.45"/><rect x="817.50" y="559.92" width="26.94" height="0.08" fill="#e15759" fill-opacity="0.45"/><rect x="844.44" y="558.74" width="26.94" height="1.26" fill="#4e79a7" fill-opacity="0.45"/><rect x="844.44" y="559.84" width="26.94" height="0.16" fill="#e15759" fill-opacity="0.45"/><rect x="871.39" y="560.00" width="26.94" height="0.00" fill="#4e79a7" fill-opacity="0.45"/><rect x="871.39" y="559.91" width="26.94" height="0.09" fill="#e15759" fill-opacity="0.45"/><rect x="898.33" y="560.00" width="26.94" height="0.00" fill="#4e79a7" fill-opacity="0.45"/><rect x="898.33" y="559.95" width="26.94" height="0.05" fill="#e15759" fill-opacity="0.45"/><rect x="925.28" y="560.00" width="26.94" height="0.00" fill="#4e79a7" fill-opacity="0.45"/><rect x="925.28" y="559.96" width="26.94" height="0.04" fill="#e15759" fill-opacity="0.45"/><rect x="952.22" y="559.81" width="26.94" height="0.19" fill="#4e79a7" fill-opacity="0.45"/><rect x="952.22" y="559.89" width="26.94" height="0.11" fill="#e15759" fill-opacity="0.45"/><rect x="979.17" y="560.00" width="26.94" height="0.00" fill="#4e79a7" fill-opacity="0.45"/><rect x="979.17" y="559.95" width="26.94" height="0.05" fill="#e15759" fill-opacity="0.45"/><rect x="1006.11" y="560.00" width="26.94" height="0.00" fill="#4e79a7" fill-opacity="0.45"/><rect x="1006.11" y="559.97" width="26.94" height="0.03" fill="#e15759" fill-opacity="0.45"/><rect x="1033.06" y="559.53" width="26.94" height="0.47" fill="#4e79a7" fill-opacity="0.45"/><rect x="1033.06" y="559.92" width="26.94" height="0.08" fill="#e15759" fill-opacity="0.45"/><line x1="90" y1="560.00" x2="1060" y2="560.00" stroke="#d9d9d9" stroke-width="1"/><text x="82" y="564.00" text-anchor="end" font-size="10" font-family="sans-serif">0</text><line x1="90" y1="462.00" x2="1060" y2="462.00" stroke="#d9d9d9" stroke-width="1"/><text x="82" y="466.00" text-anchor="end" font-size="10" font-family="sans-serif">9905</text><line x1="90" y1="364.00" x2="1060" y2="364.00" stroke="#d9d9d9" stroke-width="1"/><text x="82" y="368.00" text-anchor="end" font-size="10" font-family="sans-serif">19810</text><line x1="90" y1="266.00" x2="1060" y2="266.00" stroke="#d9d9d9" stroke-width="1"/><text x="82" y="270.00" text-anchor="end" font-size="10" font-family="sans-serif">29715</text><line x1="90" y1="168.00" x2="1060" y2="168.00" stroke="#d9d9d9" stroke-width="1"/><text x="82" y="172.00" text-anchor="end" font-size="10" font-family="sans-serif">39620</text><line x1="90" y1="70.00" x2="1060" y2="70.00" stroke="#d9d9d9" stroke-width="1"/><text x="82" y="74.00" text-anchor="end" font-size="10" font-family="sans-serif">49525</text><text x="90" y="652" font-size="11" font-family="sans-serif">Range: 0.000 to 1.000</text><rect x="880" y="78" width="14" height="14" fill="#4e79a7" fill-opacity="0.55"/><text x="900" y="90" font-size="11" font-family="sans-serif">Benign</text><rect x="880" y="100" width="14" height="14" fill="#e15759" fill-opacity="0.55"/><text x="900" y="112" font-size="11" font-family="sans-serif">Attack</text></svg>