<svg xmlns="http://www.w3.org/2000/svg" width="1120" height="680" viewBox="0 0 1120 680" role="img"><rect x="0" y="0" width="1120" height="680" fill="white"/><text x="560" y="26" text-anchor="middle" font-size="16" font-family="sans-serif" font-weight="600">Distribution Overlay: Variance (Sampled)</text><line x1="90" y1="560" x2="1060" y2="560" stroke="black" stroke-width="1"/><line x1="90" y1="560" x2="90" y2="70" stroke="black" stroke-width="1"/><rect x="90.00" y="555.78" width="26.94" height="4.22" fill="#4e79a7" fill-opacity="0.45"/><rect x="90.00" y="70.00" width="26.94" height="490.00" fill="#e15759" fill-opacity="0.45"/><rect x="116.94" y="560.00" width="26.94" height="0.00" fill="#4e79a7" fill-opacity="0.45"/><rect x="116.94" y="551.50" width="26.94" height="8.50" fill="#e15759" fill-opacity="0.45"/><rect x="143.89" y="560.00" width="26.94" height="0.00" fill="#4e79a7" fill-opacity="0.45"/><rect x="143.89" y="550.24" width="26.94" height="9.76" fill="#e15759" fill-opacity="0.45"/><rect x="170.83" y="559.95" width="26.94" height="0.05" fill="#4e79a7" fill-opacity="0.45"/><rect x="170.83" y="550.42" width="26.94" height="9.58" fill="#e15759" fill-opacity="0.45"/><rect x="197.78" y="560.00" width="26.94" height="0.00" fill="#4e79a7" fill-opacity="0.45"/><rect x="197.78" y="552.56" width="26.94" height="7.44" fill="#e15759" fill-opacity="0.45"/><rect x="224.72" y="560.00" width="26.94" height="0.00" fill="#4e79a7" fill-opacity="0.45"/><rect x="224.72" y="547.35" width="26.94" height="12.65" fill="#e15759" fill-opacity="0.45"/><rect x="251.67" y="560.00" width="26.94" height="0.00" fill="#4e79a7" fill-opacity="0.45"/><rect x="251.67" y="544.41" width="26.94" height="15.59" fill="#e15759" fill-opacity="0.45"/><rect x="278.61" y="559.67" width="26.94" height="0.33" fill="#4e79a7" fill-opacity="0.45"/><rect x="278.61" y="555.53" width="26.94" height="4.47" fill="#e15759" fill-opacity="0.45"/><rect x="305.56" y="560.00" width="26.94" height="0.00" fill="#4e79a7" fill-opacity="0.45"/><rect x="305.56" y="556.82" width="26.94" height="3.18" fill="#e15759" fill-opacity="0.45"/><rect x="332.50" y="560.00" width="26.94" height="0.00" fill="#4e79a7" fill-opacity="0.45"/><rect x="332.50" y="555.63" width="26.94" height="4.37" fill="#e15759" fill-opacity="0.45"/><rect x="359.44" y="559.48" width="26.94" height="0.52" fill="#4e79a7" fill-opacity="0.45"/><rect x="359.44" y="555.95" width="26.94" height="4.05" fill="#e15759" fill-opacity="0.45"/><rect x="386.39" y="560.00" width="26.94" height="0.00" fill="#4e79a7" fill-opacity="0.45"/><rect x="386.39" y="556.57" width="26.94" height="3.43" fill="#e15759" fill-opacity="0.45"/><rect x="413.33" y="560.00" width="26.94" height="0.00" fill="#4e79a7" fill-opacity="0.45"/><rect x="413.33" y="557.26" width="26.94" height="2.74" fill="#e15759" fill-opacity="0.45"/><rect x="440.28" y="560.00" width="26.94" height="0.00" fill="#4e79a7" fill-opacity="0.45"/><rect x="440.28" y="558.32" width="26.94" height="1.68" fill="#e15759" fill-opacity="0.45"/><rect x="467.22" y="559.66" width="26.94" height="0.34" fill="#4e79a7" fill-opacity="0.45"/><rect x="467.22" y="558.15" width="26.94" height="1.85" fill="#e15759" fill-opacity="0.45"/><rect x="494.17" y="560.00" width="26.94" height="0.00" fill="#4e79a7" fill-opacity="0.45"/><rect x="494.17" y="558.33" width="26.94" height="1.67" fill="#e15759" fill-opacity="0.45"/><rect x="521.11" y="560.00" width="26.94" height="0.00" fill="#4e79a7" fill-opacity="0.45"/><rect x="521.11" y="558.71" width="26.94" height="1.29" fill="#e15759" fill-opacity="0.45"/><rect x="548.06" y="560.00" width="26.94" height="0.00" fill="#4e79a7" fill-opacity="0.45"/><rect x="548.06" y="559.15" width="26.94" height="0.85" fill="#e15759" fill-opacity="0.45"/><rect x="575.00" y="559.28" width="26.94" height="0.72" fill="#4e79a7" fill-opacity="0.45"/><rect x="575.00" y="558.63" width="26.94" height="1.37" fill="#e15759" fill-opacity="0.45"/><rect x="601.94" y="560.00" width="26.94" height="0.00" fill="#4e79a7" fill-opacity="0.45"/><rect x="601.94" y="559.18" width="26.94" height="0.82" fill="#e15759" fill-opacity="0.45"/><rect x="628.89" y="560.00" width="26.94" height="0.00" fill="#4e79a7" fill-opacity="0.45"/><rect x="628.89" y="559.13" width="26.94" height="0.87" fill="#e15759" fill-opacity="0.45"/><rect x="655.83" y="559.27" width="26.94" height="0.73" fill="#4e79a7" fill-opacity="0.45"/><rect x="655.83" y="558.86" width="26.94" height="1.14" fill="#e15759" fill-opacity="0.45"/><rect x="682.78" y="560.00" width="26.94" height="0.00" fill="#4e79a7" fill-opacity="0.45"/><rect x="682.78" y="559.43" width="26.94" height="0.57" fill="#e15759" fill-opacity="0.45"/><rect x="709.72" y="560.00" width="26.94" height="0.00" fill="#4e79a7" fill-opacity="0.45"/><rect x="709.72" y="559.35" width="26.94" height="0.65" fill="#e15759" fill-opacity="0.45"/><rect x="736.67" y="560.00" width="26.94" height="0.00" fill="#4e79a7" fill-opacity="0.45"/><rect x="736.67" y="559.24" width="26.94" height="0.76" fill="#e15759" fill-opacity="0.45"/><rect x="763.61" y="558.99" width="26.94" height="1.01" fill="#4e79a7" fill-opacity="0.45"/><rect x="763.61" y="559.10" width="26.94" height="0.90" fill="#e15759" fill-opacity="0.45"/><rect x="790.56" y="560.00" width="26.94" height="0.00" fill="#4e79a7" fill-opacity="0.45"/><rect x="790.56" y="559.41" width="26.94" height="0.59" fill="#e15759" fill-opacity="0.45"/><rect x="817.50" y="560.00" width="26.94" height="0.00" fill="#4e79a7" fill-opacity="0.45"/><rect x="817.50" y="559.22" width="26.94" height="0.78" fill="#e15759" fill-opacity="0.45"/><rect x="844.44" y="557.93" width="26.94" height="2.07" fill="#4e79a7" fill-opacity="0.45"/><rect x="844.44" y="558.52" width="26.94" height="1.48" fill="#e15759" fill-opacity="0.45"/><rect x="871.39" y="560.00" width="26.94" height="0.00" fill="#4e79a7" fill-opacity="0.45"/><rect x="871.39" y="558.65" width="26.94" height="1.35" fill="#e15759" fill-opacity="0.45"/><rect x="898.33" y="560.00" width="26.94" height="0.00" fill="#4e79a7" fill-opacity="0.45"/><rect x="898.33" y="557.68" width="26.94" height="2.32" fill="#e15759" fill-opacity="0.45"/><rect x="925.28" y="560.00" width="26.94" height="0.00" fill="#4e79a7" fill-opacity="0.45"/><rect x="925.28" y="557.82" width="26.94" height="2.18" fill="#e15759" fill-opacity="0.45"/><rect x="952.22" y="544.63" width="26.94" height="15.37" fill="#4e79a7" fill-opacity="0.45"/><rect x="952.22" y="553.41" width="26.94" height="6.59" fill="#e15759" fill-opacity="0.45"/><rect x="979.17" y="560.00" width="26.94" height="0.00" fill="#4e79a7" fill-opacity="0.45"/><rect x="979.17" y="554.09" width="26.94" height="5.91" fill="#e15759" fill-opacity="0.45"/><rect x="1006.11" y="560.00" width="26.94" height="0.00" fill="#4e79a7" fill-opacity="0.45"/><rect x="1006.11" y="558.74" width="26.94" height="1.26" fill="#e15759" fill-opacity="0.45"/><rect x="1033.06" y="539.00" width="26.94" height="21.00" fill="#4e79a7" fill-opacity="0.45"/><rect x="1033.06" y="557.71" width="26.94" height="2.29" fill="#e15759" fill-opacity="0.45"/><line x1="90" y1="560.00" x2="1060" y2="560.00" stroke="#d9d9d9" stroke-width="1"/><text x="82" y="564.00" text-anchor="end" font-size="10" font-family="sans-serif">0</text><line x1="90" y1="462.00" x2="1060" y2="462.00" stroke="#d9d9d9" stroke-width="1"/><text x="82" y="466.00" text-anchor="end" font-size="10" font-family="sans-serif">8268</text><line x1="90" y1="364.00" x2="1060" y2="364.00" stroke="#d9d9d9" stroke-width="1"/><text x="82" y="368.00" text-anchor="end" font-size="10" font-family="sans-serif">16536</text><line x1="90" y1="266.00" x2="1060" y2="266.00" stroke="#d9d9d9" stroke-width="1"/><text x="82" y="270.00" text-anchor="end" font-size="10" font-family="sans-serif">24803</text><line x1="90" y1="168.00" x2="1060" y2="168.00" stroke="#d9d9d9" stroke-width="1"/><text x="82" y="172.00" text-anchor="end" font-size="10" font-family="sans-serif">33071</text><line x1="90" y1="70.00" x2="1060" y2="70.00" stroke="#d9d9d9" stroke-width="1"/><text x="82" y="74.00" text-anchor="end" font-size="10" font-family="sans-serif">41339</text><text x="90" y="652" font-size="11" font-family="sans-serif">Range: 0.000 to 1.000</text><rect x="880" y="78" width="14" height="14" fill="#4e79a7" fill-opacity="0.55"/><text x="900" y="90" font-size="11" font-family="sans-serif">Benign</text><rect x="880" y="100" width="14" height="14" fill="#e15759" fill-opacity="0.55"/><text x="900" y="112" font-size="11" font-family="sans-serif">Attack</text></svg>