<svg xmlns="http://www.w3.org/2000/svg" width="1120" height="680" viewBox="0 0 1120 680" role="img"><rect x="0" y="0" width="1120" height="680" fill="white"/><text x="560" y="26" text-anchor="middle" font-size="16" font-family="sans-serif" font-weight="600">Distribution Overlay: rst_count (Sampled)</text><line x1="90" y1="560" x2="1060" y2="560" stroke="black" stroke-width="1"/><line x1="90" y1="560" x2="90" y2="70" stroke="black" stroke-width="1"/><rect x="90.00" y="546.46" width="26.94" height="13.54" fill="#4e79a7" fill-opacity="0.45"/><rect x="90.00" y="70.00" width="26.94" height="490.00" fill="#e15759" fill-opacity="0.45"/><rect x="116.94" y="556.40" width="26.94" height="3.60" fill="#4e79a7" fill-opacity="0.45"/><rect x="116.94" y="559.69" width="26.94" height="0.31" fill="#e15759" fill-opacity="0.45"/><rect x="143.89" y="557.52" width="26.94" height="2.48" fill="#4e79a7" fill-opacity="0.45"/><rect x="143.89" y="559.85" width="26.94" height="0.15" fill="#e15759" fill-opacity="0.45"/><rect x="170.83" y="557.90" width="26.94" height="2.10" fill="#4e79a7" fill-opacity="0.45"/><rect x="170.83" y="559.91" width="26.94" height="0.09" fill="#e15759" fill-opacity="0.45"/><rect x="197.78" y="557.85" width="26.94" height="2.15" fill="#4e79a7" fill-opacity="0.45"/><rect x="197.78" y="559.93" width="26.94" height="0.07" fill="#e15759" fill-opacity="0.45"/><rect x="224.72" y="558.31" width="26.94" height="1.69" fill="#4e79a7" fill-opacity="0.45"/><rect x="224.72" y="559.97" width="26.94" height="0.03" fill="#e15759" fill-opacity="0.45"/><rect x="251.67" y="558.15" width="26.94" height="1.85" fill="#4e79a7" fill-opacity="0.45"/><rect x="251.67" y="559.96" width="26.94" height="0.04" fill="#e15759" fill-opacity="0.45"/><rect x="278.61" y="558.60" width="26.94" height="1.40" fill="#4e79a7" fill-opacity="0.45"/><rect x="278.61" y="559.95" width="26.94" height="0.05" fill="#e15759" fill-opacity="0.45"/><rect x="305.56" y="558.79" width="26.94" height="1.21" fill="#4e79a7" fill-opacity="0.45"/><rect x="305.56" y="559.93" width="26.94" height="0.07" fill="#e15759" fill-opacity="0.45"/><rect x="332.50" y="558.76" width="26.94" height="1.24" fill="#4e79a7" fill-opacity="0.45"/><rect x="332.50" y="559.96" width="26.94" height="0.04" fill="#e15759" fill-opacity="0.45"/><rect x="359.44" y="558.90" width="26.94" height="1.10" fill="#4e79a7" fill-opacity="0.45"/><rect x="359.44" y="559.99" width="26.94" height="0.01" fill="#e15759" fill-opacity="0.45"/><rect x="386.39" y="559.09" width="26.94" height="0.91" fill="#4e79a7" fill-opacity="0.45"/><rect x="386.39" y="559.97" width="26.94" height="0.03" fill="#e15759" fill-opacity="0.45"/><rect x="413.33" y="559.23" width="26.94" height="0.77" fill="#4e79a7" fill-opacity="0.45"/><rect x="413.33" y="560.00" width="26.94" height="0.00" fill="#e15759" fill-opacity="0.45"/><rect x="440.28" y="559.35" width="26.94" height="0.65" fill="#4e79a7" fill-opacity="0.45"/><rect x="440.28" y="559.99" width="26.94" height="0.01" fill="#e15759" fill-opacity="0.45"/><rect x="467.22" y="559.42" width="26.94" height="0.58" fill="#4e79a7" fill-opacity="0.45"/><rect x="467.22" y="559.96" width="26.94" height="0.04" fill="#e15759" fill-opacity="0.45"/><rect x="494.17" y="559.57" width="26.94" height="0.43" fill="#4e79a7" fill-opacity="0.45"/><rect x="494.17" y="559.99" width="26.94" height="0.01" fill="#e15759" fill-opacity="0.45"/><rect x="521.11" y="559.60" width="26.94" height="0.40" fill="#4e79a7" fill-opacity="0.45"/><rect x="521.11" y="559.99" width="26.94" height="0.01" fill="#e15759" fill-opacity="0.45"/><rect x="548.06" y="559.64" width="26.94" height="0.36" fill="#4e79a7" fill-opacity="0.45"/><rect x="548.06" y="559.99" width="26.94" height="0.01" fill="#e15759" fill-opacity="0.45"/><rect x="575.00" y="559.79" width="26.94" height="0.21" fill="#4e79a7" fill-opacity="0.45"/><rect x="575.00" y="560.00" width="26.94" height="0.00" fill="#e15759" fill-opacity="0.45"/><rect x="601.94" y="559.86" width="26.94" height="0.14" fill="#4e79a7" fill-opacity="0.45"/><rect x="601.94" y="560.00" width="26.94" height="0.00" fill="#e15759" fill-opacity="0.45"/><rect x="628.89" y="559.88" width="26.94" height="0.12" fill="#4e79a7" fill-opacity="0.45"/><rect x="628.89" y="560.00" width="26.94" height="0.00" fill="#e15759" fill-opacity="0.45"/><rect x="655.83" y="559.96" width="26.94" height="0.04" fill="#4e79a7" fill-opacity="0.45"/><rect x="655.83" y="560.00" width="26.94" height="0.00" fill="#e15759" fill-opacity="0.45"/><rect x="682.78" y="559.97" width="26.94" height="0.03" fill="#4e79a7" fill-opacity="0.45"/><rect x="682.78" y="560.00" width="26.94" height="0.00" fill="#e15759" fill-opacity="0.45"/><rect x="709.72" y="559.99" width="26.94" height="0.01" fill="#4e79a7" fill-opacity="0.45"/><rect x="709.72" y="560.00" width="26.94" height="0.00" fill="#e15759" fill-opacity="0.45"/><rect x="736.67" y="560.00" width="26.94" height="0.00" fill="#4e79a7" fill-opacity="0.45"/><rect x="736.67" y="560.00" width="26.94" height="0.00" fill="#e15759" fill-opacity="0.45"/><rect x="763.61" y="560.00" width="26.94" height="0.00" fill="#4e79a7" fill-opacity="0.45"/><rect x="763.61" y="560.00" width="26.94" height="0.00" fill="#e15759" fill-opacity="0.45"/><rect x="790.56" y="560.00" width="26.94" height="0.00" fill="#4e79a7" fill-opacity="0.45"/><rect x="790.56" y="560.00" width="26.94" height="0.00" fill="#e15759" fill-opacity="0.45"/><rect x="817.50" y="559.99" width="26.94" height="0.01" fill="#4e79a7" fill-opacity="0.45"/><rect x="817.50" y="560.00" width="26.94" height="0.00" fill="#e15759" fill-opacity="0.45"/><rect x="844.44" y="560.00" width="26.94" height="0.00" fill="#4e79a7" fill-opacity="0.45"/><rect x="844.44" y="560.00" width="26.94" height="0.00" fill="#e15759" fill-opacity="0.45"/><rect x="871.39" y="560.00" width="26.94" height="0.00" fill="#4e79a7" fill-opacity="0.45"/><rect x="871.39" y="560.00" width="26.94" height="0.00" fill="#e15759" fill-opacity="0.45"/><rect x="898.33" y="560.00" width="26.94" height="0.00" fill="#4e79a7" fill-opacity="0.45"/><rect x="898.33" y="560.00" width="26.94" height="0.00" fill="#e15759" fill-opacity="0.45"/><rect x="925.28" y="560.00" width="26.94" height="0.00" fill="#4e79a7" fill-opacity="0.45"/><rect x="925.28" y="560.00" width="26.94" height="0.00" fill="#e15759" fill-opacity="0.45"/><rect x="952.22" y="559.99" width="26.94" height="0.01" fill="#4e79a7" fill-opacity="0.45"/><rect x="952.22" y="560.00" width="26.94" height="0.00" fill="#e15759" fill-opacity="0.45"/><rect x="979.17" y="560.00" width="26.94" height="0.00" fill="#4e79a7" fill-opacity="0.45"/><rect x="979.17" y="560.00" width="26.94" height="0.00" fill="#e15759" fill-opacity="0.45"/><rect x="1006.11" y="559.99" width="26.94" height="0.01" fill="#4e79a7" fill-opacity="0.45"/><rect x="1006.11" y="560.00" width="26.94" height="0.00" fill="#e15759" fill-opacity="0.45"/><rect x="1033.06" y="559.99" width="26.94" height="0.01" fill="#4e79a7" fill-opacity="0.45"/><rect x="1033.06" y="560.00" width="26.94" height="0.00" fill="#e15759" fill-opacity="0.45"/><line x1="90" y1="560.00" x2="1060" y2="560.00" stroke="#d9d9d9" stroke-width="1"/><text x="82" y="564.00" text-anchor="end" font-size="10" font-family="sans-serif">0</text><line x1="90" y1="462.00" x2="1060" y2="462.00" stroke="#d9d9d9" stroke-width="1"/><text x="82" y="466.00" text-anchor="end" font-size="10" font-family="sans-serif">10356</text><line x1="90" y1="364.00" x2="1060" y2="364.00" stroke="#d9d9d9" stroke-width="1"/><text x="82" y="368.00" text-anchor="end" font-size="10" font-family="sans-serif">20712</text><line x1="90" y1="266.00" x2="1060" y2="266.00" stroke="#d9d9d9" stroke-width="1"/><text x="82" y="270.00" text-anchor="end" font-size="10" font-family="sans-serif">31067</text><line x1="90" y1="168.00" x2="1060" y2="168.00" stroke="#d9d9d9" stroke-width="1"/><text x="82" y="172.00" text-anchor="end" font-size="10" font-family="sans-serif">41423</text><line x1="90" y1="70.00" x2="1060" y2="70.00" stroke="#d9d9d9" stroke-width="1"/><text x="82" y="74.00" text-anchor="end" font-size="10" font-family="sans-serif">51779</text><text x="90" y="652" font-size="11" font-family="sans-serif">Range: 0.000 to 18719.100</text><rect x="880" y="78" width="14" height="14" fill="#4e79a7" fill-opacity="0.55"/><text x="900" y="90" font-size="11" font-family="sans-serif">Benign</text><rect x="880" y="100" width="14" height="14" fill="#e15759" fill-opacity="0.55"/><text x="900" y="112" font-size="11" font-family="sans-serif">Attack</text></svg>